PathFileType  4	(X/Y/Z) C:\Users\antoi\Documents\MyRepositories\mobilecap\ResultsAnalysis
DataRate	CameraRate	NumFrames	NumMarkers	Units	OrigDataRate	OrigDataStartFrame	OrigNumFrames
100.0	100.0	4	51	mm	100.0	1629	1861
Frame#	Time	r_knee			r_shank_antsup			r_ankle			r_calc			r_5meta			r_toe			L_knee			L_shank_antsup			L_ankle			L_calc			L_5meta			L_toe			r_sh2			r_sh3			r_sh4			L_sh2			L_sh3			r_thigh1			r_thigh2			r_thigh3			r_thigh4			r_thigh5			L_thigh1			L_thigh2			L_thigh3			L_thigh4			r.ASIS			r.PSIS			L.ASIS			L.PSIS			C7			R_Shoulder			L_Shoulder			R_Sternum			L_Sternum			R_humerus			R_elbow_med			R_elbow_lat			R_forearm			R_wrist_radius			R_wrist_ulna			L_humerus			L_elbow_med			L_elbow_lat			L_forearm			L_wrist_radius			L_wrist_ulna			R_HJC			L_HJC			R_HJC_reg			L_HJC_reg			
		X1	Y1	Z1	X2	Y2	Z2	X3	Y3	Z3	X4	Y4	Z4	X5	Y5	Z5	X6	Y6	Z6	X7	Y7	Z7	X8	Y8	Z8	X9	Y9	Z9	X10	Y10	Z10	X11	Y11	Z11	X12	Y12	Z12	X13	Y13	Z13	X14	Y14	Z14	X15	Y15	Z15	X16	Y16	Z16	X17	Y17	Z17	X18	Y18	Z18	X19	Y19	Z19	X20	Y20	Z20	X21	Y21	Z21	X22	Y22	Z22	X23	Y23	Z23	X24	Y24	Z24	X25	Y25	Z25	X26	Y26	Z26	X27	Y27	Z27	X28	Y28	Z28	X29	Y29	Z29	X30	Y30	Z30	X31	Y31	Z31	X32	Y32	Z32	X33	Y33	Z33	X34	Y34	Z34	X35	Y35	Z35	X36	Y36	Z36	X37	Y37	Z37	X38	Y38	Z38	X39	Y39	Z39	X40	Y40	Z40	X41	Y41	Z41	X42	Y42	Z42	X43	Y43	Z43	X44	Y44	Z44	X45	Y45	Z45	X46	Y46	Z46	X47	Y47	Z47	X48	Y48	Z48	X49	Y49	Z49	X50	Y50	Z50	X51	Y51	Z51	

1629	16.28000000	-123.23109	471.68200	-432.05525	-100.53716	403.63691	-425.69222	-220.60998	85.38014	-427.35329	-275.24530	57.78063	-472.21888	-114.56699	41.41032	-400.17216	-76.10319	59.41208	-452.80208	-124.13794	473.07613	-752.40599	-100.65625	382.09902	-751.43368	-209.16908	93.25009	-773.87817	-267.75031	53.54899	-730.72202	-108.38459	43.39783	-803.78675	-58.21508	59.63101	-749.08214	-139.15533	297.93208	-412.23930	-170.04333	433.36833	-407.46770	-215.92312	323.65346	-401.52474	-177.15041	417.17560	-783.33024	-207.63683	299.51349	-799.77771	-67.15836	727.01963	-397.16567	-65.46263	614.09128	-408.05858	-171.91755	609.43703	-435.62935	-179.22421	723.77274	-410.90983	-127.68523	590.01383	-407.84422	-68.78207	755.44071	-789.77127	-61.18254	617.50452	-769.40099	-180.47075	749.00248	-787.12982	-173.44227	616.03851	-747.46957	-26.49917	936.98547	-480.68825	-237.71421	926.19325	-551.88761	-30.08310	943.09166	-704.95921	-236.32637	928.86571	-632.79998	-236.41990	1374.79457	-595.24963	-179.93708	1343.40709	-446.69117	-180.53320	1341.62546	-738.16717	-107.82904	1332.22100	-570.34359	-104.22575	1326.38940	-608.99092	-131.37620	1253.20736	-369.65652	-105.65152	1034.83865	-340.65111	-94.61904	1071.78364	-280.83319	-4.03734	1101.17389	-274.16817	131.46259	1109.63763	-289.77437	136.21984	1077.60493	-269.74026	-149.42792	1249.85134	-815.88980	-97.54660	1028.24832	-834.38084	-93.48416	1068.93021	-890.81346	12.03246	1082.16497	-898.99652	136.05708	1088.63748	-880.86104	137.14261	1049.94937	-892.78766	-88.92579	835.39025	-489.88273	-92.75662	843.40948	-697.19968	-84.81923	855.65519	-515.17945	-82.28088	860.54257	-663.16691	
1630	16.29000000	-122.80519	471.79087	-431.92883	-100.30218	403.77348	-425.62443	-220.52327	85.51184	-427.40431	-275.25504	57.79243	-472.19221	-114.52897	41.41406	-400.15327	-76.05831	59.35248	-452.76885	-122.16871	472.93638	-752.64559	-99.13537	381.74565	-751.39433	-209.02762	93.35919	-773.75122	-267.66069	53.70829	-730.68433	-108.34983	43.39261	-803.79450	-58.13283	59.49854	-749.07056	-138.98985	297.97776	-412.34217	-169.64197	433.00407	-407.63032	-215.77015	323.92649	-401.59803	-175.39212	417.14377	-783.33916	-206.35925	299.55372	-799.60555	-65.84686	726.97154	-396.77998	-64.66047	614.10119	-407.83976	-170.99983	609.59540	-435.63858	-177.89774	724.00433	-410.99287	-126.86290	590.06665	-407.67376	-66.91354	755.13939	-789.51304	-59.24778	617.20632	-769.14453	-178.61580	748.84404	-786.90497	-171.50165	615.76618	-747.80253	-24.79295	936.99189	-480.46370	-235.96514	926.26174	-551.76642	-28.31090	942.87234	-704.96866	-234.53943	928.71214	-632.44489	-236.62346	1374.10989	-595.07736	-179.88717	1342.95139	-446.19711	-180.64776	1341.18868	-738.02128	-107.03934	1331.48306	-571.00085	-104.83230	1326.00068	-609.57146	-131.26303	1252.80284	-369.67992	-105.31192	1034.51813	-340.80801	-94.31063	1071.36949	-280.91442	-3.70971	1100.83201	-274.16791	131.87570	1109.47568	-289.81752	136.62036	1077.39711	-269.83720	-149.15435	1249.35806	-815.76555	-96.67847	1028.05060	-833.98430	-92.82805	1068.40931	-890.39980	12.70230	1081.56537	-898.73988	136.73696	1088.01004	-880.59641	137.80711	1049.29785	-892.45910	-87.18104	835.43064	-489.59604	-91.05225	843.19213	-696.92214	-83.20621	855.74911	-514.80330	-80.58787	860.24966	-662.95404	
1631	16.30000000	-122.30350	471.89831	-431.73447	-100.01988	403.87888	-425.51209	-220.42509	85.67422	-427.43011	-275.22807	57.86121	-472.22759	-114.51950	41.37672	-400.13435	-76.01197	59.27874	-452.73757	-120.42929	472.73836	-752.72352	-97.76640	381.48438	-751.35984	-208.91120	93.46251	-773.60472	-267.57513	53.93561	-730.77697	-108.31440	43.40299	-803.79322	-58.05533	59.34711	-749.02514	-138.70595	297.97062	-412.36917	-169.66985	431.88936	-407.92445	-215.47710	324.24715	-401.46438	-173.78686	417.18520	-783.25668	-205.33342	299.69277	-799.48836	-64.67136	726.94063	-396.39238	-63.78763	614.06778	-407.69753	-170.12157	609.69685	-435.71778	-176.73422	724.24860	-410.92959	-126.03904	590.05415	-407.58205	-65.10885	754.97378	-789.40141	-57.44275	617.05788	-769.11772	-176.72543	748.58753	-786.75291	-169.65804	615.58296	-748.03121	-23.16564	937.00716	-480.30101	-234.33722	926.36584	-551.67588	-26.52213	942.65200	-704.80603	-233.05696	928.84614	-631.71924	-236.71158	1373.48733	-595.02768	-179.80737	1342.52295	-445.90465	-180.57456	1340.90544	-737.91750	-106.57495	1331.18595	-571.26146	-105.04129	1325.73341	-609.57494	-131.06501	1252.44282	-369.66534	-104.52207	1034.04734	-341.31888	-93.68628	1070.81177	-281.32221	-3.27762	1100.55236	-274.21409	132.39488	1109.44329	-289.86189	137.09059	1077.32332	-269.93481	-148.74486	1248.99113	-815.61302	-96.21004	1027.68103	-833.36998	-92.15900	1068.01809	-890.05837	13.38064	1081.08073	-898.56142	137.46033	1087.48008	-880.37300	138.48603	1048.66276	-892.13679	-85.60471	835.48538	-489.24278	-89.57536	843.05994	-696.57391	-81.41016	855.60552	-514.60082	-79.04094	860.19759	-662.74736	
1632	16.31000000	-121.77571	472.01062	-431.55331	-99.63843	403.94482	-425.33059	-220.38258	85.75083	-427.44894	-275.15876	57.97541	-472.28217	-114.53472	41.31558	-400.11920	-75.99162	59.21809	-452.74708	-118.96325	472.46125	-752.62538	-96.58725	381.18455	-751.15168	-208.82081	93.57987	-773.49445	-267.49728	54.15715	-730.87116	-108.29079	43.40386	-803.79058	-57.99359	59.23208	-749.02633	-138.33940	298.03706	-412.19777	-169.64413	431.24090	-408.21992	-215.14859	324.54372	-401.31842	-172.52271	417.18246	-783.15406	-204.54035	299.87218	-799.45104	-63.59830	726.78804	-396.28099	-62.89388	613.85880	-407.70343	-169.22052	609.86857	-435.81546	-175.64648	724.42485	-410.94989	-125.20620	590.09346	-407.50568	-63.31816	754.84194	-789.35814	-55.77212	616.96195	-769.23280	-174.90234	748.32395	-786.70100	-168.00114	615.35880	-747.82497	-21.61164	936.99238	-480.29871	-232.76763	926.52199	-551.54958	-24.71501	942.55487	-704.64656	-231.64747	928.97477	-631.06120	-236.68770	1373.02167	-595.07577	-179.73395	1342.18565	-445.83948	-180.30278	1340.74867	-737.82424	-106.46544	1331.27975	-571.05921	-104.69395	1325.73927	-609.41469	-130.74705	1252.14956	-369.52478	-103.66372	1033.45933	-341.62484	-93.02092	1070.35786	-281.67314	-2.69730	1100.34927	-274.31195	132.95954	1109.58118	-289.94010	137.67360	1077.45113	-269.91124	-148.26306	1248.76848	-815.47638	-95.66252	1027.34978	-832.81521	-91.50711	1067.78489	-889.74094	14.11478	1080.69110	-898.35120	138.27236	1087.02843	-880.36053	139.20849	1048.08954	-891.82770	-84.05775	835.52636	-488.99228	-88.14524	843.02009	-696.32406	-79.68965	855.65247	-514.45219	-77.60392	860.21819	-662.49591	
